<?xml version="1.0" encoding="utf-8"?>
<!-- Svg Vector Icons : http://www.onlinewebfonts.com/icon -->
<!DOCTYPE svg PUBLIC "-//W3C//DTD SVG 1.1//EN" "http://www.w3.org/Graphics/SVG/1.1/DTD/svg11.dtd">
<svg version="1.1" xmlns="http://www.w3.org/2000/svg" xmlns:xlink="http://www.w3.org/1999/xlink" x="0px" y="0px" viewBox="0 0 1000 1000" enable-background="new 0 0 1000 1000" xml:space="preserve" fill="currentColor">
  <g fill="currentColor" transform="translate(0.000000,512.000000) scale(0.100000,-0.100000)">
    <path  d="M1889.2,4989.3c-30.6-15.3-442.1-413.4-910.9-884.1C53.9,3178.9,78.8,3209.5,111.3,3035.4c11.5-65.1,141.6-202.8,1115.7-1178.8L2331.2,752.3l191.4-74.6c204.8-80.4,891.8-308.1,1358.7-451.6c279.4-86.1,289-89.9,392.3-193.3l105.3-103.3l-424.8-426.8l-426.8-424.8l-126.3,5.7c-84.2,5.8-153.1-3.8-206.7-22.9c-63.2-24.9-344.5-296.6-1353-1307.1C465.4-3626.3,522.8-3561.2,522.8-3766c1.9-155,57.4-235.4,407.6-587.5c181.8-181.8,363.6-350.2,405.7-373.2c107.2-57.4,313.8-57.4,421,0c118.7,63.2,2562.5,2522.3,2602.7,2618c23,55.5,30.6,112.9,23,214.3l-7.7,135.9l243,243l243,243l42.1-55.5c24.9-28.7,147.4-158.8,273.7-289l231.6-235.4l189.5,187.5l187.5,187.5l225.8-225.8l225.8-225.8l-7.6-111c-15.3-214.3-68.9-153.1,1228.6-1454.4C8730.7-4770.7,8738.4-4778.3,8924-4778.3c156.9,0,250.7,65.1,587.5,403.8c331.1,334.9,386.6,417.2,388.5,572.2c0,185.6-7.7,193.3-1284.1,1465.9c-966.4,962.6-1207.6,1194.2-1268.8,1213.3c-44,13.4-124.4,19.1-193.3,13.4l-120.6-9.6L6797.9-882c-218.2,218.2-231.6,237.3-206.7,271.7c15.3,21.1,153.1,187.6,306.2,371.3c1464,1735.7,2369.2,3416,2552.9,4726.9c30.6,218.2,38.3,512.9,15.3,512.9c-9.6,0-976-960.7-2149.1-2133.8L5182.7,733.2l-99.5,99.5l-99.5,101.4l-181.8,583.7c-197.1,635.4-281.3,884.1-373.2,1119.5l-59.3,153.1L3274.7,3885.1c-606.6,606.6-1121.4,1104.2-1150.1,1115.7C2049.9,5027.5,1958.1,5023.7,1889.2,4989.3z M3014.4,3492.8c824.8-822.9,914.8-918.6,914.8-974.1c0-132-84.2-216.2-214.3-216.2c-57.4,0-141.6,78.5-976,914.8L1824.1,4130v82.3c0,116.7,78.5,195.2,195.2,195.2h82.3L3014.4,3492.8z M2459.5,2937.8c824.8-822.9,914.8-918.6,914.8-974.1c0-132-84.2-216.2-214.3-216.2c-57.4,0-141.6,78.5-976,914.8L1269.1,3575v82.3c0,116.7,78.5,195.2,195.2,195.2h82.3L2459.5,2937.8z M1904.5,2382.8c824.8-822.9,914.8-918.6,914.8-974.1c0-132-84.2-216.2-214.3-216.2c-57.4,0-141.6,78.5-976,914.8l-914.8,912.8v82.3c0,116.7,78.5,195.2,195.2,195.2h82.3L1904.5,2382.8z" />
  </g>
</svg>